HIERARCHY
ROOT Hips
{
	OFFSET 0.000000 0.000000 0.000000
	CHANNELS 6 Xposition Yposition Zposition Zrotation Yrotation Xrotation 
	JOINT LHipJoint
	{
		OFFSET 0.000000 0.000000 0.000000
		CHANNELS 3 Zrotation Yrotation Xrotation
		JOINT LeftUpLeg
		{
			OFFSET 1.363060 -1.794630 0.839290
			CHANNELS 3 Zrotation Yrotation Xrotation
			JOINT LeftLeg
			{
				OFFSET 2.448110 -6.726130 0.000000
				CHANNELS 3 Zrotation Yrotation Xrotation
				JOINT LeftFoot
				{
					OFFSET 2.562200 -7.039590 0.000000
					CHANNELS 3 Zrotation Yrotation Xrotation
					JOINT LeftToeBase
					{
						OFFSET 0.157640 -0.433110 2.322550
						CHANNELS 3 Zrotation Yrotation Xrotation
						End Site
						{
							OFFSET 0.000000 0.000000 0.000000
						}
					}
				}
			}
		}
	}
	JOINT RHipJoint
	{
		OFFSET 0.000000 0.000000 0.000000
		CHANNELS 3 Zrotation Yrotation Xrotation
		JOINT RightUpLeg
		{
			OFFSET -1.305520 -1.794630 0.839290
			CHANNELS 3 Zrotation Yrotation Xrotation
			JOINT RightLeg
			{
				OFFSET -2.542530 -6.985550 0.000000
				CHANNELS 3 Zrotation Yrotation Xrotation
				JOINT RightFoot
				{
					OFFSET -2.568260 -7.056230 0.000000
					CHANNELS 3 Zrotation Yrotation Xrotation
					JOINT RightToeBase
					{
						OFFSET -0.164730 -0.452590 2.363150
						CHANNELS 3 Zrotation Yrotation Xrotation
						End Site
						{
							OFFSET 0.000000 0.000000 0.000000
						}
					}
				}
			}
		}
	}
	JOINT LowerBack
	{
		OFFSET 0.000000 0.000000 0.000000
		CHANNELS 3 Zrotation Yrotation Xrotation
		JOINT Spine
		{
			OFFSET 0.028270 2.035590 -0.193380
			CHANNELS 3 Zrotation Yrotation Xrotation
			JOINT Spine1
			{
				OFFSET 0.056720 2.048850 -0.042750
				CHANNELS 3 Zrotation Yrotation Xrotation
				JOINT Neck
				{
					OFFSET 0.000000 0.000000 0.000000
					CHANNELS 3 Zrotation Yrotation Xrotation
					JOINT Neck1
					{
						OFFSET -0.054170 1.746240 0.172020
						CHANNELS 3 Zrotation Yrotation Xrotation
						JOINT Head
						{
							OFFSET 0.104070 1.761360 -0.123970
							CHANNELS 3 Zrotation Yrotation Xrotation
							End Site
							{
								OFFSET 0.000000 0.000000 0.000000
							}
						}
					}
				}
				JOINT LeftShoulder
				{
					OFFSET 0.000000 0.000000 0.000000
					CHANNELS 3 Zrotation Yrotation Xrotation
					JOINT LeftArm
					{
						OFFSET 3.362410 1.200890 -0.311210
						CHANNELS 3 Zrotation Yrotation Xrotation
						JOINT LeftForeArm
						{
							OFFSET 4.983000 -0.000000 -0.000000
							CHANNELS 3 Zrotation Yrotation Xrotation
							JOINT LeftHand
							{
								OFFSET 3.483560 -0.000000 -0.000000
								CHANNELS 3 Zrotation Yrotation Xrotation
								JOINT LeftFingerBase
								{
									OFFSET 0.000000 0.000000 0.000000
									CHANNELS 3 Zrotation Yrotation Xrotation
									JOINT LeftHandIndex1
									{
										OFFSET 0.715260 -0.000000 -0.000000
										CHANNELS 3 Zrotation Yrotation Xrotation
										End Site
										{
											OFFSET 0.000000 0.000000 0.000000
										}
									}
								}
								JOINT LThumb
								{
									OFFSET 0.000000 0.000000 0.000000
									CHANNELS 3 Zrotation Yrotation Xrotation
									End Site
									{
										OFFSET 0.000000 0.000000 0.000000
									}
								}
							}
						}
					}
				}
				JOINT RightShoulder
				{
					OFFSET 0.000000 0.000000 0.000000
					CHANNELS 3 Zrotation Yrotation Xrotation
					JOINT RightArm
					{
						OFFSET -3.136600 1.374050 -0.404650
						CHANNELS 3 Zrotation Yrotation Xrotation
						JOINT RightForeArm
						{
							OFFSET -5.241900 -0.000000 -0.000000
							CHANNELS 3 Zrotation Yrotation Xrotation
							JOINT RightHand
							{
								OFFSET -3.444170 -0.000000 -0.000000
								CHANNELS 3 Zrotation Yrotation Xrotation
								JOINT RightFingerBase
								{
									OFFSET 0.000000 0.000000 0.000000
									CHANNELS 3 Zrotation Yrotation Xrotation
									JOINT RightHandIndex1
									{
										OFFSET -0.622530 -0.000000 -0.000000
										CHANNELS 3 Zrotation Yrotation Xrotation
										End Site
										{
											OFFSET 0.000000 0.000000 0.000000
										}
									}
								}
								JOINT RThumb
								{
									OFFSET 0.000000 0.000000 0.000000
									CHANNELS 3 Zrotation Yrotation Xrotation
									End Site
									{
										OFFSET 0.000000 0.000000 0.000000
									}
								}
							}
						}
					}
				}
			}
		}
	}
}
MOTION
Frames: 4
Frame Time: 0.008333
2.292658 16.465761 -1.503905 -165.280749 82.312322 -147.945741 -12.379709 2.719502 -1.403025 -4.284021 0.210869 -7.014994 0.003551 2.687496 42.776487 1.347162 7.616686 4.768624 1.317000 -0.000000 -73.135700 8.271956 1.002210 0.187739 4.419971 -0.301278 -44.953640 2.582146 -2.069157 26.008026 1.385039 9.954714 7.801030 2.339600 0.000000 -56.822100 8.844930 -2.440136 2.630366 0.554100 -2.965784 -2.024365 -8.334621 -2.909028 1.557694 8.673194 -5.992876 -5.911760 -4.615552 -0.350658 0.306698 0.000000 0.000000 0.000000 0.157833 7.048674 2.626798 -30.379150 -14.166841 3.549192 -0.746239 -78.879936 0.043526 -10.925147 0.427935 -0.019233 0.048830 0.222919 0.000000 0.000000 0.000000 0.000000 0.000000 0.000000 0.000000 19.173591 -4.900879 1.138969 65.759749 -5.613175 -15.003394 3.979073 17.312018 0.022043 2.156290 11.746265 0.214791 0.089400 -0.078202 -0.000000 0.000000 0.000000 0.000000 0.000000 0.000000 0.000000 
2.466418 16.469041 -1.529093 -163.852159 81.612058 -146.508504 -12.703278 2.613037 -1.487322 -3.644420 0.883788 -8.916648 0.233917 2.872510 46.107474 1.643436 9.635096 5.696495 1.821799 0.000000 -67.184100 8.106975 0.912577 0.041744 5.062000 -0.439925 -44.734779 2.570041 -2.122702 27.301052 1.274527 9.066409 6.500037 1.907600 0.000000 -56.558800 9.502708 -2.314191 2.779936 0.679352 -2.866552 -2.031514 -8.311092 -2.817793 1.466482 8.633311 -5.444967 -5.741697 -4.667807 -0.354727 0.347519 0.000000 0.000000 0.000000 0.024471 7.028203 2.608517 -31.591554 -13.941417 4.003315 -0.779679 -78.707836 0.042878 -10.793059 0.423512 -0.018583 0.042015 0.221899 0.000000 0.000000 0.000000 0.000000 0.000000 0.000000 0.000000 19.225696 -4.360701 1.182454 65.570123 -5.031221 -15.431212 3.984848 16.203910 0.021646 1.872686 11.742580 0.185378 0.089453 -0.078233 -0.000000 0.000000 0.000000 0.000000 0.000000 0.000000 0.000000 
2.636771 16.477858 -1.551588 -163.271156 80.849906 -145.899228 -12.971339 2.477236 -1.566251 -3.160902 1.492278 -10.874655 0.436935 3.044333 49.361069 1.956880 11.835802 6.232950 2.381000 -0.000000 -59.860400 7.969331 0.828169 -0.079395 5.592671 -0.611771 -44.410032 2.568249 -2.149295 28.357859 1.151847 8.163633 5.039609 1.495400 0.000000 -56.688700 10.040624 -2.209709 2.899400 0.782566 -2.783427 -2.041765 -8.288806 -2.742575 1.381190 8.639164 -4.893452 -5.555976 -4.717789 -0.358719 0.393191 0.000000 0.000000 0.000000 -0.063350 6.976138 2.590042 -32.840220 -13.699651 4.571238 -0.816949 -78.468364 0.042167 -10.676466 0.418502 -0.018032 0.035705 0.220191 0.000000 0.000000 0.000000 0.000000 0.000000 0.000000 0.000000 19.322818 -3.835015 1.220260 65.380434 -4.359526 -15.850080 3.985819 15.055573 0.021235 1.614319 11.755808 0.158765 0.089145 -0.078347 -0.000000 0.000000 0.000000 0.000000 0.000000 0.000000 0.000000 
2.804275 16.492062 -1.571345 -163.387140 80.031683 -145.962171 -13.178872 2.324903 -1.631667 -2.846242 2.000944 -12.874509 0.613469 3.206239 52.481318 2.270532 14.087729 6.363380 2.930600 -0.000000 -52.026800 7.866431 0.753465 -0.176925 5.996798 -0.822374 -43.984258 2.573144 -2.151110 29.165766 1.018859 7.274787 3.534932 1.129800 -0.000000 -57.074700 10.456513 -2.126520 2.979999 0.862805 -2.717033 -2.056672 -8.269332 -2.683766 1.303268 8.685206 -4.353306 -5.360931 -4.764685 -0.362562 0.442235 0.000000 0.000000 0.000000 -0.124855 6.892137 2.573273 -34.084276 -13.435222 5.255267 -0.857214 -78.172946 0.041370 -10.577136 0.417114 -0.017884 0.029934 0.217605 0.000000 0.000000 0.000000 0.000000 0.000000 0.000000 0.000000 19.459787 -3.336571 1.252898 65.193781 -3.598770 -16.257931 3.982041 13.887433 0.020834 1.383532 11.791828 0.135351 0.088522 -0.078665 -0.000000 0.000000 0.000000 0.000000 0.000000 0.000000 0.000000 
